<?xml version="1.0" encoding="UTF-8"?>
<svg id="Calque_1" data-name="Calque 1" xmlns="http://www.w3.org/2000/svg" viewBox="0 0 608.85 200.2">
  <defs>
    <style>
      .cls-1, .cls-2, .cls-3 {
        fill: none;
      }

      .cls-4 {
        fill: #ff6b35;
      }

      .cls-4, .cls-5, .cls-2, .cls-3 {
        stroke-miterlimit: 10;
      }

      .cls-4, .cls-3 {
        stroke: #ff6b35;
      }

      .cls-5 {
        fill: #1e293b;
      }

      .cls-5, .cls-2 {
        stroke: #1e293b;
      }
    </style>
  </defs>
  <path class="cls-4" d="M579.57,144.42l28.75,3.86s.04.07,0,.07h-28.75v-3.93Z"/>
  <g>
    <path class="cls-5" d="M60.03,147.74h-28.35C.86,147.74.5,116.87.5,116.55h5.67-2.83,2.83c0,1.04.4,25.51,25.51,25.51h28.35c1.04,0,25.51-.4,25.51-25.51v-14.17c0-1.04-.4-25.51-25.51-25.51h-28.4c-1.54,0-2.78-1.24-2.78-2.78v-14.13c0-1.62,1.31-2.94,2.94-2.94h25.51c1.51,0,2.73,1.22,2.73,2.73v2.94h-25.56l.04,8.55,25.51-.04c30.82,0,31.18,30.87,31.18,31.18v14.17c0,30.83-30.87,31.18-31.18,31.18Z"/>
    <path class="cls-2" d="M3.33,116.55s0,28.35,28.35,28.35h28.35s28.35,0,28.35-28.35v-14.17s0-28.35-28.35-28.35h-25.56c-1.54,0-2.79-1.25-2.79-2.79v-8.59c0-1.54,1.25-2.79,2.79-2.79h25.56"/>
    <g>
      <path class="cls-5" d="M60.03,119.39h-25.5c-1.58,0-2.85-1.28-2.85-2.85v-2.82h25.56l-.05-8.55-25.51.04C.86,105.22.5,74.35.5,74.04v-14.17c0-30.83,30.87-31.18,31.18-31.18h28.35c30.82,0,31.18,30.87,31.18,31.18h-5.67c0-1.04-.4-25.51-25.51-25.51h-28.35c-1.04,0-25.51.4-25.51,25.51v14.17c0,1.04.4,25.51,25.51,25.51h28.35c1.56,0,2.83,1.27,2.83,2.83v14.18c0,1.56-1.27,2.83-2.83,2.83Z"/>
      <path class="cls-2" d="M88.37,59.86s0-28.35-28.35-28.35h-28.35s-28.35,0-28.35,28.35v14.17s0,28.35,28.35,28.35h25.56c1.54,0,2.79,1.25,2.79,2.79v8.59c0,1.54-1.25,2.79-2.79,2.79h-25.56"/>
    </g>
  </g>
  <path class="cls-5" d="M153.57,147.74c-.31,0-31.18-.36-31.18-31.18v-56.69h5.67v56.69c0,25.11,24.48,25.51,25.52,25.51v5.67Z"/>
  <path class="cls-2" d="M125.22,59.86v56.69c0,28.35,28.35,28.35,28.35,28.35"/>
  <path class="cls-5" d="M184.75,144.91c0-1.04-.4-25.52-25.51-25.52h-5.64c-1.58,0-2.86-1.28-2.86-2.86v-59.5h8.5c1.04,0,25.51-.4,25.51-25.51h5.67c0,30.83-30.87,31.18-31.18,31.18h-2.83v51.02h2.83c30.82,0,31.18,30.87,31.18,31.18h-5.67,2.83-2.83Z"/>
  <path class="cls-2" d="M187.59,144.9s0-28.35-28.35-28.35h-5.67v-56.69h5.67s28.35,0,28.35-28.35"/>
  <path class="cls-5" d="M105.38,59.87h-5.67c0-10.79,5.33-31.18,25.51-31.19v5.67c-19.55,0-19.84,24.47-19.84,25.52Z"/>
  <path class="cls-2" d="M102.55,59.86s0-28.35,22.68-28.35"/>
  <rect class="cls-1" x="98.3" y="59.86" width="5.67" height="1.42"/>
  <g>
    <path class="cls-5" d="M283.96,144.91c0-1.04-.4-25.52-25.51-25.52h-25.56c-3.11,0-5.62-2.52-5.62-5.62v-53.84c0-1.6,1.3-2.9,2.9-2.9h28.33c1.54,0,2.79,1.25,2.79,2.79v11.62c0,2.87-2.15,5.27-5.01,5.59-7.02.78-23.34,4.82-23.34,25.36v11.38l25.51-.05c30.83,0,31.18,30.87,31.18,31.18h-5.67,2.83-2.83ZM232.94,62.7v20.62c6.91-9.25,18.23-11.42,22.71-11.92l-.03-8.69h-22.69Z"/>
    <path class="cls-2" d="M286.8,144.9s0-28.35-28.35-28.35h-25.56c-1.54,0-2.79-1.25-2.79-2.79v-53.9h28.35v11.57c0,1.42-1.07,2.61-2.49,2.77-6.91.77-25.86,5-25.86,28.17"/>
    <path class="cls-5" d="M258.45,147.74h-28.35c-.31,0-31.18-.36-31.18-31.18v-56.69c0-.31.36-31.18,31.18-31.18h28.35c.31,0,31.18.36,31.18,31.18v14.17c0,.31-.36,31.18-31.18,31.18v-2.91c0-1.48,1.13-2.74,2.6-2.85,22.54-1.63,22.91-24.42,22.91-25.43v-14.17c0-25.11-24.48-25.51-25.52-25.51h-28.34c-25.11,0-25.51,24.47-25.51,25.52v56.69c0,25.11,24.48,25.51,25.52,25.51h25.62c1.5,0,2.72,1.22,2.72,2.72v2.95Z"/>
    <path class="cls-2" d="M258.45,102.38c28.35,0,28.35-28.35,28.35-28.35v-14.17c0-28.35-28.35-28.35-28.35-28.35h-28.35c-28.35,0-28.35,28.35-28.35,28.35v56.69c0,28.35,28.35,28.35,28.35,28.35h28.35"/>
  </g>
  <path class="cls-5" d="M329.32,147.74c-.32,0-7.84-.04-15.44-3.84-7.18-3.59-15.74-11.25-15.74-27.34v-56.69h2.83c1.57,0,2.84,1.27,2.84,2.84v53.85c0,25.11,24.48,25.51,25.52,25.51v5.67Z"/>
  <path class="cls-2" d="M329.32,144.9s-28.35,0-28.35-28.35v-56.69"/>
  <path class="cls-5" d="M332.15,116.55h-5.27c-.22,0-.4-.18-.4-.4v-56.29c0-25.12-24.48-25.51-25.52-25.51v-5.67c.32,0,31.19.36,31.19,31.18v56.69Z"/>
  <path class="cls-2" d="M329.32,116.55v-56.69c0-28.35-28.35-28.35-28.35-28.35"/>
  <path class="cls-5" d="M332.15,59.87h-5.67c0-.32.36-31.19,31.18-31.19,30.82,0,31.18,30.87,31.18,31.18h-5.67c0-1.04-.4-25.51-25.51-25.51-25.11,0-25.51,24.48-25.51,25.52Z"/>
  <path class="cls-2" d="M329.32,59.86s0-28.35,28.35-28.35c28.35,0,28.35,28.35,28.35,28.35"/>
  <path class="cls-5" d="M428.53,147.72c-.32,0-7.84-.04-15.44-3.84-7.18-3.59-15.74-11.25-15.74-27.34v-56.69h2.85c1.56,0,2.82,1.26,2.82,2.82v53.87c0,25.11,24.48,25.51,25.52,25.51v5.67Z"/>
  <path class="cls-2" d="M428.53,144.89s-28.35,0-28.35-28.35v-56.69"/>
  <path class="cls-5" d="M431.37,116.54h-5.2c-.26,0-.47-.21-.47-.47v-56.22h5.67v56.69Z"/>
  <path class="cls-2" d="M428.53,116.54v-56.69"/>
  <path class="cls-5" d="M485.22,147.74c-30.82,0-31.18-30.37-31.18-30.68v-55.82c0-1.54,1.25-2.79,2.79-2.79h0c1.59,0,2.88,1.29,2.88,2.88v55.73c0,1.01.4,25.01,25.51,25.01v5.67Z"/>
  <path class="cls-2" d="M456.88,58.44v58.61s0,27.84,28.35,27.84"/>
  <path class="cls-5" d="M488.06,116.55h-5.19c-.27,0-.48-.22-.48-.48v-56.21c0-1.04-.4-25.51-25.51-25.51s-25.51,24.48-25.51,25.52h-5.67c0-.32.36-31.19,31.18-31.19s31.18,30.87,31.18,31.18v56.69Z"/>
  <path class="cls-2" d="M428.53,59.86s0-28.35,28.35-28.35,28.35,28.35,28.35,28.35v56.69"/>
  <path class="cls-5" d="M353.41,62.7v-2.83c0-2.34,1.91-4.25,4.25-4.25s4.25,1.91,4.25,4.25v2.83h-8.51Z"/>
  <path class="cls-5" d="M359.08,61.28h-2.83v-1.42c0-.78.63-1.42,1.42-1.42h0c.78,0,1.42.63,1.42,1.42v1.42Z"/>
  <rect class="cls-5" x="354.83" y="58.44" width="5.67" height="2.83"/>
  <line class="cls-5" x1="357.67" y1="61.28" x2="357.67" y2="58.44"/>
  <path class="cls-5" d="M529.11,144.72l-2.16-3.08,27.82-112.72,2.14.62c.15.04.24.19.2.34l-28,114.84Z"/>
  <polyline class="cls-2" points="527.86 144.42 527.86 144.42 556.27 29.36"/>
  <path class="cls-5" d="M527.69,144.69l-30.04-114.27,2.32-.46c.26-.05.52.11.58.37l28.38,108.39-.97,6.13c-.12.03-.24-.04-.27-.16Z"/>
  <line class="cls-2" x1="527.74" y1="144.9" x2="499.39" y2="31.52"/>
  <path class="cls-5" d="M535.95,148.81c-1.78,0-3.67-.15-5.68-.49-1.75-.29-3.29-5.25-2.41-3.9l.24.48c23.55,5.89,29.96-19.6,30.21-20.57l14.55-59.63c5.87-23.49-16.59-35.34-17.97-29.85l1.38-5.5c.3.07,7.39,1.89,13.66,7.26,5.93,5.08,12.21,14.31,8.42,29.46l-14.55,59.64c-.07.3-1.88,7.36-7.25,13.6-4,4.64-10.58,9.5-20.6,9.5Z"/>
  <path class="cls-2" d="M527.74,144.9c26.68,6.67,33.31-19.87,33.31-19.87h0l14.55-59.64c6.65-26.61-20.03-33.28-20.03-33.28"/>
  <path class="cls-5" d="M541.27,90.81l-1.32,5.26-10.47-43.44c-2.37-9.49-7.1-17.8-15.7-19.7-6.6-1.46-14.74-2.79-13.39,2.72h.03s-.69-2.76-.69-2.76l-.12-.47-.57-2.28c.07-.02,7.26-1.77,15.35.02,10.6,2.34,17.72,9.65,20.59,21.12l7.93,32.92h0s-1.65,6.61-1.65,6.61Z"/>
  <path class="cls-2" d="M542.92,84.2l-1.48,5.94-9.2-38.17c-2.63-10.5-8.84-16.91-18.45-19.04-7.32-1.62-13.99-.05-14.05-.04l-.11-.47"/>
  <rect class="cls-5" x=".5" y="113.72" width="5.67" height="2.83"/>
  <rect class="cls-5" x="85.54" y="59.86" width="5.67" height="2.83"/>
  <path class="cls-5" d="M156.41,31.51h-5.67c0-7.56-2.18-13.57-6.48-17.86-7.41-7.4-18.86-7.47-19.02-7.47h0l-.03-5.67c.53.01,13.88.02,23.01,9.09,5.43,5.4,8.19,12.77,8.19,21.91Z"/>
  <path class="cls-2" d="M125.23,3.35s28.34-.18,28.34,28.17"/>
  <rect class="cls-5" x="184.75" y="144.9" width="5.67" height="2.83"/>
  <path class="cls-5" d="M99.71,59.86v2.83-2.83Z"/>
  <rect class="cls-5" x="99.71" y="59.86" width="5.67" height="2.83"/>
  <path class="cls-5" d="M125.22,34.35h2.83v-2.83c0-1.57-1.27-2.83-2.83-2.83h0v5.67Z"/>
  <rect class="cls-5" x="150.74" y="31.51" width="5.67" height="2.83"/>
  <path class="cls-5" d="M122.39,59.86h0c0-1.57,1.27-2.83,2.83-2.83h2.83v2.83h-5.67Z"/>
  <path class="cls-5" d="M153.58,142.07h2.78c1.59,0,2.88,1.29,2.88,2.88v2.79h-5.67s0-5.67,0-5.67Z"/>
  <rect class="cls-5" x="184.75" y="28.68" width="5.67" height="2.83"/>
  <path class="cls-5" d="M156.41,34.35h0c1.57,0,2.83-1.27,2.83-2.83v-2.84h-2.83v5.67Z"/>
  <rect class="cls-5" x="283.96" y="144.9" width="5.67" height="2.83"/>
  <polygon class="cls-5" points="383.18 58.44 383.18 62.7 388.85 62.7 388.85 59.86 383.18 58.44"/>
  <rect class="cls-5" x="298.14" y="28.68" width="2.83" height="5.67"/>
  <rect class="cls-5" x="329.32" y="142.07" width="2.83" height="5.67"/>
  <path class="cls-5" d="M431.37,59.86h-5.67c0-25.11-24.48-25.52-25.52-25.52v-5.67c.27,0,21.19.25,28.61,17.48,3.59-8.37,11.34-17.48,28.09-17.48v5.67c-25.11,0-25.51,24.48-25.51,25.52Z"/>
  <path class="cls-2" d="M400.19,31.5s28.35.01,28.35,28.35c0,0,0-28.35,28.35-28.35"/>
  <polygon class="cls-5" points="400.19 28.67 397.35 28.67 397.35 34.35 400.18 34.34 400.19 28.67"/>
  <polygon class="cls-5" points="428.54 142.05 431.37 142.05 431.37 147.74 428.53 147.72 428.54 142.05"/>
  <path class="cls-5" d="M326.48,116.55h0c0,1.57,1.27,2.84,2.84,2.84h2.83v-2.84h-5.67Z"/>
  <path class="cls-5" d="M425.7,116.54v.12c0,1.51,1.22,2.73,2.73,2.73h2.94v-2.85h-5.67Z"/>
  <path class="cls-5" d="M482.39,116.55v.05c0,1.54,1.25,2.79,2.79,2.79h2.88v-2.83h-5.67Z"/>
  <rect class="cls-5" x="485.22" y="142.07" width="2.83" height="5.67"/>
  <g>
    <path class="cls-5" d="M535.36,185.75l-5.51,1.33-.68-2.8c-.36-1.5.56-3,2.06-3.36l2.8-.68c24.41-5.88,19.06-29.77,18.82-30.78l5.51-1.32c.07.3,6.96,30.4-23.01,37.62Z"/>
    <path class="cls-2" d="M555.62,148.8s6.64,27.56-20.92,34.2l-5.51,1.33"/>
    <path class="cls-5" d="M504.39,190.3l-5.51,1.33c-7.22-29.97,22.7-37.55,23.01-37.62l5.07-1.22,1.77,5.41-5.51,1.33c-1.01.25-24.71,6.36-18.82,30.78Z"/>
    <path class="cls-2" d="M529.19,152.3s5.84,1.47,14.14-.34l-15.27,3.47-5.51,1.33s-27.56,6.64-20.92,34.2"/>
    <path class="cls-1" d="M498.88,191.63l.66,2.76-.66-2.76Z"/>
    <rect class="cls-5" x="499.13" y="190.93" width="5.67" height="2.83" transform="translate(-31.09 122.96) rotate(-13.55)"/>
    <path class="cls-5" d="M552.86,149.46l-.14-.6c-.1-.43.1-.87.49-1.07l.77-.4s.08-.04.11-.07l2.27-1.62c.54-.39,1.3-.12,1.49.52l.41,1.44c.06.27-.1.53-.37.6l-5.03,1.21Z"/>
    <path class="cls-4" d="M499.77,195.36h0c.73,3.04,3.8,4.92,6.84,4.18l30.31-7.31h0c-.73-3.04-3.8-4.92-6.84-4.18l-30.31,7.3Z"/>
  </g>
  <path class="cls-3" d="M527.4,152.69l1.79-.38-1.79.38Z"/>
  <path class="cls-5" d="M528.75,158.19l2.2-.55s.01,0,0-.02l-.99-3.96c-.21-.84-.4-1.57-1.25-1.36l-1.3.38s-.01,0,0,.02l1.32,5.49s0,.01.02,0Z"/>
  <path class="cls-5" d="M564.34,143.2l-5.23.02c.03-3.99,2.27-9.99,9.55-9.94,7.28.05,9.88,6,9.85,9.99l-5.67-.04c-.02-1.26-.46-4.25-4.22-4.28-3.76-.03-4.25,2.96-4.28,4.25Z"/>
  <path class="cls-2" d="M561.84,143.13s.04-7.09,7.12-7.05c7.09.04,7.05,7.12,7.05,7.12"/>
  <g>
    <path class="cls-5" d="M565.45,143.26l-5.41-.03c-.52,0-.84-.58-.55-1.01,1.32-1.92,5.8-4.3,9.04-4.29h.01c1.87,0,3.03.78,3.67,1.43.83.84,2.68,1.88,4.16,2.68.6.32.37,1.23-.31,1.23h-4.51c-.28,0-.52-.18-.62-.45-.29-.74-1.17-1.75-2.43-1.76,0,0,0,0,0,0-1.27.12-2.15,1.04-2.44,1.76-.11.26-.34.44-.62.44Z"/>
    <path class="cls-2" d="M564.96,143.54s.02-3.54,3.56-3.53,3.53,3.56,3.53,3.56"/>
  </g>
  <path class="cls-5" d="M528.75,158.19l12.81-3.21c1.33-.33,2.13-1.69,1.76-3.02h0s-7.34,1.58-13.05.66c-.81-.13-1.55.48-1.54,1.3l.02,4.26Z"/>
</svg>