<?xml version="1.0" encoding="UTF-8"?>
<svg id="Calque_1" data-name="Calque 1" xmlns="http://www.w3.org/2000/svg" viewBox="0 0 574.58 883.32">
  <defs>
    <style>
      .cls-1, .cls-2, .cls-3 {
        fill: none;
      }

      .cls-2, .cls-3, .cls-4, .cls-5 {
        stroke-miterlimit: 10;
        stroke-width: 5.14px;
      }

      .cls-2, .cls-4 {
        stroke: #ff6b35;
      }

      .cls-3, .cls-5 {
        stroke: #1e293b;
      }

      .cls-4 {
        fill: #ff6b35;
      }

      .cls-5 {
        fill: #1e293b;
      }

      /* Mode sombre : tout en blanc */
      @media (prefers-color-scheme: dark) {
        .cls-2, .cls-3, .cls-4, .cls-5 {
          stroke: #ffffff;
        }
        .cls-4, .cls-5 {
          fill: #ffffff;
        }
      }
    </style>
  </defs>
  <path class="cls-4" d="M424.1,596.71l147.75,19.86c.22.03.2.36-.02.36h-147.73v-20.21Z"/>
  <path class="cls-5" d="M164.84,598.25l-11.1-15.82L296.69,3.21l11.01,3.19c.76.22,1.21,1,1.02,1.77l-143.88,590.07Z"/>
  <polyline class="cls-3" points="158.43 596.71 158.43 596.71 304.39 5.46"/>
  <path class="cls-5" d="M157.53,598.07L3.18,10.9l11.92-2.34c1.34-.26,2.65.57,2.98,1.89l145.81,556.96-4.98,31.48c-.61.15-1.22-.21-1.38-.82Z"/>
  <line class="cls-3" x1="157.81" y1="599.17" x2="12.1" y2="16.55"/>
  <path class="cls-5" d="M199.98,619.26c-9.16,0-18.88-.79-29.18-2.51-8.97-1.5-16.93-26.96-12.37-20.04l1.24,2.46c121.02,30.24,153.93-100.69,155.21-105.67l74.75-306.42c30.17-120.68-85.23-181.61-92.33-153.36l7.1-28.25c1.54.38,37.97,9.72,70.21,37.29,30.49,26.08,62.75,73.52,43.29,151.39l-74.76,306.45c-.38,1.53-9.68,37.82-37.27,69.88-20.54,23.86-54.34,48.79-105.87,48.79Z"/>
  <path class="cls-3" d="M157.81,599.17c137.09,34.27,171.18-102.11,171.18-102.11h0l74.76-306.45C437.94,53.86,300.86,19.59,300.86,19.59"/>
  <path class="cls-5" d="M227.29,321.25l-6.76,27.04-53.8-223.23c-12.19-48.74-36.47-91.47-80.66-101.24C52.17,16.32,10.33,9.5,17.24,37.79l.16-.04-3.53-14.13-.61-2.44-2.93-11.7c.37-.09,37.33-9.1,78.88.1,54.48,12.04,91.07,49.57,105.81,108.52l40.77,169.15h0s-8.5,33.99-8.5,33.99Z"/>
  <path class="cls-3" d="M235.79,287.26l-7.63,30.52-47.27-196.13c-13.49-53.97-45.4-86.91-94.82-97.83-37.61-8.32-71.86-.27-72.2-.19l-.59-2.44"/>
  <g>
    <path class="cls-5" d="M196.97,809.09l-28.32,6.82-3.47-14.41c-1.85-7.68,2.88-15.41,10.56-17.26l14.41-3.47c125.45-30.24,97.95-152.97,96.72-158.18l28.33-6.8c.38,1.56,35.76,156.19-118.22,193.3Z"/>
    <path class="cls-3" d="M301.03,619.2s34.13,141.6-107.47,175.73l-28.32,6.82"/>
    <path class="cls-5" d="M37.8,832.47l-28.32,6.82c-37.11-153.98,116.66-192.93,118.22-193.3l26.05-6.28,9.1,27.78-28.32,6.83c-5.17,1.27-126.96,32.7-96.73,158.15Z"/>
    <path class="cls-3" d="M165.24,637.21s30.03,7.57,72.65-1.72l-78.45,17.84-28.32,6.83s-141.6,34.12-107.47,175.73"/>
    <path class="cls-1" d="M9.48,839.29l3.41,14.16-3.41-14.16Z"/>
    <rect class="cls-5" x="10.78" y="835.68" width="29.13" height="14.56" transform="translate(-196.79 29.4) rotate(-13.55)"/>
    <path class="cls-5" d="M286.87,622.58l-.71-3.07c-.51-2.19.53-4.45,2.52-5.5l3.93-2.06c.2-.11.39-.22.58-.36l11.69-8.35c2.78-1.99,6.7-.62,7.63,2.68l2.09,7.39c.33,1.36-.51,2.74-1.88,3.07l-25.85,6.2Z"/>
    <path class="cls-4" d="M14.1,858.44h0c3.77,15.64,19.5,25.26,35.14,21.49l155.76-37.54h0c-3.77-15.64-19.5-25.26-35.14-21.49l-155.77,37.54Z"/>
  </g>
  <path class="cls-2" d="M156.02,639.16l9.22-1.96-9.22,1.96Z"/>
  <path class="cls-5" d="M163.01,667.47l11.29-2.83s.06-.05.05-.08l-5.1-20.35c-1.09-4.33-2.07-8.09-6.4-7.01l-6.67,1.94s-.06.05-.05.08l6.79,28.19s.05.06.08.05Z"/>
  <path class="cls-5" d="M345.84,590.43l-26.88.13c.14-20.49,11.67-51.35,49.07-51.1,37.4.25,50.77,30.83,50.64,51.32l-29.13-.2c-.08-6.47-2.37-21.86-21.7-21.99-19.33-.13-21.82,15.22-21.99,21.83Z"/>
  <path class="cls-3" d="M333.01,590.05s.19-36.41,36.61-36.22c36.41.19,36.22,36.61,36.22,36.61"/>
  <g>
    <path class="cls-5" d="M351.55,590.75l-27.81-.16c-2.66-.02-4.33-3-2.83-5.19,6.79-9.89,29.79-22.09,46.46-22.05h.08c9.62.04,15.57,4.01,18.87,7.33,4.29,4.32,13.79,9.67,21.4,13.78,3.07,1.66,1.89,6.33-1.6,6.33h-23.16c-1.45,0-2.65-.94-3.18-2.29-1.48-3.81-6-8.99-12.51-9.02-.02,0,0,0,0,0-6.52.6-11.04,5.35-12.54,9.03-.54,1.33-1.74,2.26-3.18,2.25Z"/>
    <path class="cls-3" d="M349.06,592.17s.08-18.2,18.29-18.15c18.21.04,18.13,18.32,18.13,18.32"/>
  </g>
  <path class="cls-5" d="M163.01,667.47l65.81-16.49c6.83-1.71,10.92-8.71,9.07-15.5h0s-37.69,8.13-67.08,3.4c-4.17-.67-7.94,2.48-7.92,6.7l.12,21.89Z"/>
</svg>